<svg width="139" height="141" viewBox="0 0 139 141" fill="none" xmlns="http://www.w3.org/2000/svg">
    <path d="M27.4305 96.2502C42.4085 96.2502 54.5505 88.0122 54.5505 77.8502C54.5505 67.6881 42.4085 59.4502 27.4305 59.4502C12.4526 59.4502 0.310547 67.6881 0.310547 77.8502C0.310547 88.0122 12.4526 96.2502 27.4305 96.2502Z" fill="#DEA700"/>
    <path d="M95.4105 50.88C84.1405 56.78 85.2404 73.26 97.2004 77.6C109.16 81.94 120.58 70.01 115.72 58.25C112.43 50.3 103.041 46.89 95.4205 50.88H95.4105Z" fill="#DEA700"/>
    <path d="M124.121 87.8903C127.421 111.46 100.241 134.75 63.4308 139.89C26.6108 145.04 4.1008 129.01 0.800797 105.44C-2.4992 81.8703 14.6707 59.6703 51.4907 54.5303C88.3107 49.3803 120.821 64.3203 124.121 87.8903Z" fill="#E7C319"/>
    <path d="M118.741 64.0398L90.591 80.3498C82.311 85.1498 82.5809 97.1898 91.0709 101.61C100.311 106.42 111.361 106.23 120.421 101.1L126.951 97.4098C136.131 92.2198 140.431 81.3199 137.281 71.2499C134.841 63.4599 125.811 59.9498 118.741 64.0398Z" fill="#DEA700"/>
    <path d="M91.8303 44.4501C89.6603 66.6801 70.4703 76.5601 48.9803 74.4601C27.4903 72.3601 11.8204 59.07 14.0004 36.85C16.1704 14.62 35.3603 -1.68993 56.8503 0.410073C78.3403 2.51007 94.0103 22.2301 91.8303 44.4601V44.4501Z" fill="#FEDE37"/>
    <path d="M62.0608 30.8701C65.4021 30.8701 68.1107 27.7271 68.1107 23.85C68.1107 19.973 65.4021 16.8301 62.0608 16.8301C58.7195 16.8301 56.0107 19.973 56.0107 23.85C56.0107 27.7271 58.7195 30.8701 62.0608 30.8701Z" fill="#662804"/>
    <path d="M48.4005 45.7198C48.2805 45.0498 48.0504 44.4098 47.7204 43.7998C45.9304 38.1098 39.9505 31.4998 31.5205 26.6298C19.1705 19.4998 6.24045 18.7898 2.63045 25.0398C0.570453 28.6098 2.00047 33.6798 5.90047 38.6998C10.8905 36.0898 21.3205 34.2698 39.0605 46.8498C39.0605 46.8498 15.4304 59.0898 2.8304 50.0698C2.3704 51.2498 2.21048 52.4398 2.41048 53.6098C3.50048 59.9898 14.6905 63.3898 27.3905 61.2098C35.2705 59.8598 41.8905 56.6698 45.5105 52.9198C46.2605 52.3498 46.8804 51.6598 47.3404 50.8598C47.6704 50.2898 47.9105 49.6798 48.0605 49.0398C48.4605 47.9298 48.5905 46.8198 48.4005 45.7098V45.7198Z" fill="#F9962A"/>
    <path d="M39.0602 46.8598C21.3202 34.2798 10.8901 36.0999 5.90015 38.7099C7.01015 40.1399 8.32017 41.5598 9.80017 42.9398C6.32017 45.0298 3.84008 47.5199 2.83008 50.0799C15.4301 59.0899 39.0602 46.8598 39.0602 46.8598Z" fill="#F46E2B"/>
</svg>