<svg width="139" height="145" viewBox="0 0 139 145" fill="none" xmlns="http://www.w3.org/2000/svg">
<path d="M27.16 96.2502C42.138 96.2502 54.28 88.0122 54.28 77.8502C54.28 67.6881 42.138 59.4502 27.16 59.4502C12.1821 59.4502 0.0400391 67.6881 0.0400391 77.8502C0.0400391 88.0122 12.1821 96.2502 27.16 96.2502Z" fill="#662D91"/>
<path d="M95.1302 50.88C83.8602 56.78 84.9602 73.26 96.9202 77.6C108.88 81.94 120.3 70.01 115.44 58.25C112.15 50.3 102.76 46.89 95.1402 50.88H95.1302Z" fill="#662D91"/>
<path d="M123.84 91.8903C127.14 115.46 99.9605 138.75 63.1505 143.89C26.3305 149.04 3.82052 133.01 0.520524 109.44C-2.77948 85.8702 14.3905 63.6703 51.2105 58.5303C88.0305 53.3903 120.54 68.3203 123.84 91.8903Z" fill="#8646B2"/>
<path d="M118.46 64.0403L90.3097 80.3503C82.0297 85.1503 82.2997 97.1903 90.7897 101.61C100.03 106.42 111.08 106.23 120.14 101.1L126.67 97.4103C135.85 92.2203 140.15 81.3203 137 71.2503C134.56 63.4603 125.53 59.9503 118.46 64.0403Z" fill="#662D91"/>
<path d="M89.6204 44.45C87.4504 66.68 68.2604 76.56 46.7704 74.46C25.2804 72.36 9.6104 59.0699 11.7904 36.8499C13.9704 14.6299 33.1504 -1.69002 54.6404 0.409977C76.1304 2.50998 91.8004 22.23 89.6204 44.46V44.45Z" fill="#966BBE"/>
<path d="M61.7805 30.8701C65.1218 30.8701 67.8304 27.7271 67.8304 23.85C67.8304 19.973 65.1218 16.8301 61.7805 16.8301C58.4392 16.8301 55.7305 19.973 55.7305 23.85C55.7305 27.7271 58.4392 30.8701 61.7805 30.8701Z" fill="#452804"/>
<path d="M48.13 45.7203C48.01 45.0503 47.7799 44.4103 47.4499 43.8003C45.6599 38.1103 39.68 31.5003 31.25 26.6303C18.9 19.5003 5.96994 18.7903 2.35995 25.0403C0.299945 28.6103 1.72996 33.6803 5.62996 38.7003C10.62 36.0903 21.05 34.2703 38.79 46.8503C38.79 46.8503 15.16 59.0903 2.56002 50.0703C2.10002 51.2503 1.93997 52.4403 2.13997 53.6103C3.22997 59.9903 14.42 63.3903 27.12 61.2103C35 59.8603 41.6199 56.6703 45.2399 52.9203C45.9899 52.3503 46.6099 51.6603 47.0699 50.8603C47.3999 50.2903 47.64 49.6803 47.79 49.0403C48.19 47.9303 48.32 46.8203 48.13 45.7103V45.7203Z" fill="#F9962A"/>
<path d="M38.7798 46.8603C21.0398 34.2803 10.6098 36.1004 5.61975 38.7104C6.72975 40.1404 8.03978 41.5603 9.51978 42.9403C6.03978 45.0303 3.5598 47.5203 2.5498 50.0803C15.1498 59.0903 38.7798 46.8603 38.7798 46.8603Z" fill="#F46E2B"/>
</svg>
