<svg width="139" height="141" viewBox="0 0 139 141" fill="none" xmlns="http://www.w3.org/2000/svg">
<path d="M27.4003 96.2502C42.3782 96.2502 54.5203 88.0122 54.5203 77.8502C54.5203 67.6881 42.3782 59.4502 27.4003 59.4502C12.4223 59.4502 0.280273 67.6881 0.280273 77.8502C0.280273 88.0122 12.4223 96.2502 27.4003 96.2502Z" fill="#D7325D"/>
<path d="M95.3802 50.88C84.1102 56.78 85.2102 73.26 97.1702 77.6C109.13 81.94 120.55 70.01 115.69 58.25C112.4 50.3 103.01 46.89 95.3902 50.88H95.3802Z" fill="#D7325D"/>
<path d="M124.09 87.8903C127.39 111.46 100.211 134.75 63.4005 139.89C26.5805 145.04 4.07052 129.01 0.770524 105.44C-2.52948 81.8702 14.6405 59.6703 51.4605 54.5303C88.2805 49.3903 120.79 64.3203 124.09 87.8903Z" fill="#F03B58"/>
<path d="M118.71 64.0403L90.5597 80.3503C82.2797 85.1503 82.5497 97.1903 91.0397 101.61C100.28 106.42 111.33 106.23 120.39 101.1L126.92 97.4103C136.1 92.2203 140.4 81.3203 137.25 71.2503C134.81 63.4603 125.78 59.9503 118.71 64.0403Z" fill="#D7325D"/>
<path d="M91.8002 44.4501C89.6302 66.6801 70.4401 76.5601 48.9501 74.4601C27.4601 72.3601 11.7901 59.07 13.9701 36.85C16.1401 14.62 35.3301 -1.68993 56.8201 0.410073C78.3101 2.51007 93.9802 22.2301 91.8002 44.4601V44.4501Z" fill="#F05A68"/>
<path d="M62.0305 30.8701C65.3718 30.8701 68.0804 27.7271 68.0804 23.85C68.0804 19.973 65.3718 16.8301 62.0305 16.8301C58.6892 16.8301 55.9805 19.973 55.9805 23.85C55.9805 27.7271 58.6892 30.8701 62.0305 30.8701Z" fill="#452804"/>
<path d="M48.3702 45.7203C48.2502 45.0503 48.0201 44.4103 47.6901 43.8003C45.9001 38.1103 39.9202 31.5003 31.4902 26.6303C19.1402 19.5003 6.21018 18.7903 2.60018 25.0403C0.540179 28.6103 1.9702 33.6803 5.8702 38.7003C10.8602 36.0903 21.2902 34.2703 39.0302 46.8503C39.0302 46.8503 15.4003 59.0903 2.80025 50.0703C2.34025 51.2503 2.18021 52.4403 2.38021 53.6103C3.47021 59.9903 14.6602 63.3903 27.3602 61.2103C35.2402 59.8603 41.8602 56.6703 45.4802 52.9203C46.2302 52.3503 46.8503 51.6603 47.3103 50.8603C47.6403 50.2903 47.8802 49.6803 48.0302 49.0403C48.4302 47.9303 48.5602 46.8203 48.3702 45.7103V45.7203Z" fill="#F9962A"/>
<path d="M39.0308 46.8603C21.2908 34.2803 10.8607 36.1004 5.87073 38.7104C6.98073 40.1404 8.29075 41.5603 9.77075 42.9403C6.29075 45.0303 3.81078 47.5203 2.80078 50.0803C15.4008 59.0903 39.0308 46.8603 39.0308 46.8603Z" fill="#F46E2B"/>
</svg>
