<svg width="139" height="142" viewBox="0 0 139 142" fill="none" xmlns="http://www.w3.org/2000/svg">
<path d="M27.6102 97.1301C42.5882 97.1301 54.7302 88.8921 54.7302 78.73C54.7302 68.568 42.5882 60.3301 27.6102 60.3301C12.6323 60.3301 0.490234 68.568 0.490234 78.73C0.490234 88.8921 12.6323 97.1301 27.6102 97.1301Z" fill="#7F9A4D"/>
<path d="M95.5901 51.7604C84.3201 57.6604 85.4202 74.1404 97.3802 78.4804C109.34 82.8204 120.76 70.8904 115.9 59.1304C112.61 51.1804 103.22 47.7704 95.6001 51.7604H95.5901Z" fill="#7F9A4D"/>
<path d="M124.301 88.7702C127.601 112.34 100.42 135.63 63.6105 140.77C26.8005 145.91 4.28048 129.89 0.980483 106.32C-2.31952 82.7502 14.8505 60.5502 51.6705 55.4102C88.4905 50.2702 121.001 65.2002 124.301 88.7702Z" fill="#BCBF1B"/>
<path d="M92.0401 44.29C89.9601 66.5201 70.8201 76.48 49.3101 74.47C27.8101 72.46 12.0901 59.2401 14.1701 37.0001C16.2501 14.7701 35.3701 -1.62993 56.8701 0.380074C78.3701 2.39007 94.1201 22.0501 92.0301 44.2801L92.0401 44.29Z" fill="#DDE136"/>
<path d="M118.921 64.9202L90.7707 81.2302C82.4907 86.0302 82.7606 98.0702 91.2506 102.49C100.491 107.3 111.541 107.11 120.601 101.98L127.131 98.2902C136.311 93.1002 140.611 82.2002 137.461 72.1302C135.021 64.3402 125.991 60.8302 118.921 64.9202Z" fill="#7F9A4D"/>
<path d="M62.2405 31.7499C65.5818 31.7499 68.2905 28.607 68.2905 24.7299C68.2905 20.8529 65.5818 17.71 62.2405 17.71C58.8992 17.71 56.1904 20.8529 56.1904 24.7299C56.1904 28.607 58.8992 31.7499 62.2405 31.7499Z" fill="#662804"/>
<path d="M48.5801 46.6001C48.4601 45.9301 48.2301 45.2902 47.9001 44.6802C46.1101 38.9902 40.1301 32.3802 31.7001 27.5102C19.3501 20.3802 6.42017 19.6702 2.81017 25.9202C0.750168 29.4902 2.18007 34.5602 6.08007 39.5802C11.0701 36.9702 21.5001 35.1502 39.2401 47.7302C39.2401 47.7302 15.6101 59.9702 3.01012 50.9502C2.55012 52.1302 2.39008 53.3202 2.59008 54.4902C3.68008 60.8702 14.8701 64.2702 27.5701 62.0902C35.4501 60.7402 42.0701 57.5502 45.6901 53.8002C46.4401 53.2302 47.0601 52.5402 47.5201 51.7402C47.8501 51.1702 48.0901 50.5602 48.2401 49.9202C48.6401 48.8102 48.7701 47.7002 48.5801 46.5902V46.6001Z" fill="#F9962A"/>
<path d="M39.2397 47.7299C21.4997 35.1499 11.0697 36.97 6.07971 39.58C7.18971 41.01 8.49974 42.43 9.97974 43.81C6.49974 45.9 4.01977 48.39 3.00977 50.95C15.6098 59.96 39.2397 47.7299 39.2397 47.7299Z" fill="#F46E2B"/>
</svg>
