<svg width="144" height="142" viewBox="0 0 144 142" fill="none" xmlns="http://www.w3.org/2000/svg">
<path d="M32.6395 97.1301C47.6175 97.1301 59.7595 88.8921 59.7595 78.73C59.7595 68.568 47.6175 60.3301 32.6395 60.3301C17.6616 60.3301 5.51953 68.568 5.51953 78.73C5.51953 88.8921 17.6616 97.1301 32.6395 97.1301Z" fill="#0083B5"/>
<path d="M100.62 51.7604C89.3504 57.6604 90.4504 74.1404 102.41 78.4804C114.37 82.8204 125.79 70.8904 120.93 59.1304C117.64 51.1804 108.25 47.7704 100.63 51.7604H100.62Z" fill="#0083B5"/>
<path d="M123.91 88.7702C127.21 112.34 100.03 135.63 63.2199 140.77C26.4099 145.91 3.88986 129.89 0.589858 106.32C-2.71014 82.7502 14.4599 60.5502 51.2799 55.4102C88.0999 50.2702 120.61 65.2002 123.91 88.7702Z" fill="#00AED3"/>
<path d="M123.95 64.9202L95.8 81.2302C87.52 86.0302 87.7899 98.0702 96.2799 102.49C105.52 107.3 116.57 107.11 125.63 101.98L132.16 98.2902C141.34 93.1002 145.64 82.2002 142.49 72.1302C140.05 64.3402 131.02 60.8302 123.95 64.9202Z" fill="#0083B5"/>
<path d="M97.0502 44.4501C94.8802 66.6801 75.6901 76.5601 54.2001 74.4601C32.7101 72.3601 17.0401 59.07 19.2201 36.85C21.3901 14.62 40.5801 -1.68993 62.0701 0.410073C83.5601 2.51007 99.2302 22.2301 97.0502 44.4601V44.4501Z" fill="#6AD0E3"/>
<path d="M67.2698 31.7499C70.6111 31.7499 73.3197 28.607 73.3197 24.7299C73.3197 20.8529 70.6111 17.71 67.2698 17.71C63.9285 17.71 61.2197 20.8529 61.2197 24.7299C61.2197 28.607 63.9285 31.7499 67.2698 31.7499Z" fill="#662804"/>
<path d="M53.6104 46.6001C53.4904 45.9301 53.2605 45.2902 52.9305 44.6802C51.1405 38.9902 45.1604 32.3802 36.7304 27.5102C24.3804 20.3802 11.4504 19.6702 7.84041 25.9202C5.78041 29.4902 7.21043 34.5602 11.1104 39.5802C16.1004 36.9702 26.5305 35.1502 44.2705 47.7302C44.2705 47.7302 20.6405 59.9702 8.04049 50.9502C7.58049 52.1302 7.42044 53.3202 7.62044 54.4902C8.71044 60.8702 19.9004 64.2702 32.6004 62.0902C40.4804 60.7402 47.1004 57.5502 50.7204 53.8002C51.4704 53.2302 52.0905 52.5402 52.5505 51.7402C52.8805 51.1702 53.1205 50.5602 53.2705 49.9202C53.6705 48.8102 53.8004 47.7002 53.6104 46.5902V46.6001Z" fill="#F9962A"/>
<path d="M44.271 47.7299C26.531 35.1499 16.101 36.97 11.111 39.58C12.221 41.01 13.531 42.43 15.011 43.81C11.531 45.9 9.05102 48.39 8.04102 50.95C20.641 59.96 44.271 47.7299 44.271 47.7299Z" fill="#F46E2B"/>
</svg>
