<svg width="835" height="148" viewBox="0 0 835 148" fill="none" xmlns="http://www.w3.org/2000/svg">
<path d="M24.8989 93.5055C29.3604 92.254 31.7883 87.0019 30.3219 81.7748C28.8556 76.5476 24.0503 73.3247 19.5888 74.5762C15.1274 75.8277 12.6994 81.0797 14.1658 86.3069C15.6321 91.5341 20.4375 94.757 24.8989 93.5055Z" fill="#09674F"/>
<path d="M28.2597 77.6403C23.8997 77.4203 19.6297 79.5303 15.5297 80.8003C14.0397 81.2603 13.0496 82.6903 12.8896 82.7103C12.0796 82.7903 6.76958 79.6003 5.64958 78.5303C-3.80042 69.4403 1.3096 50.1703 6.6696 40.0703C17.4696 42.0403 32.6498 57.9103 31.6198 69.2903C31.2398 73.4803 28.6697 75.0903 28.2597 77.6503V77.6403Z" fill="#E5384E"/>
<path d="M25.6799 59.4902L17.8301 51.2102L7.16992 43.2002C8.94992 43.3102 10.62 43.6302 12.25 44.4202C14.53 45.5302 28.2299 57.3502 25.6799 59.4802V59.4902Z" fill="#F6D8DA"/>
<path d="M128.149 38.59L129.11 44.81C147.21 42.37 184.73 37.64 199.76 48.99C210.29 56.95 202.449 67.37 204.409 74.04C205.059 76.24 208.01 76.84 209.37 78.43C214.16 84.05 208.049 87.62 209.669 91.35C209.999 92.12 216.339 98.42 217.429 99.18C231.879 109.34 253.77 105.85 270.06 103.55L267.07 95.24C267 94.45 267.01 93.32 267.61 93.08C270.87 91.78 280.409 89.05 282.639 91.3L283.58 98.56C285.04 98.8 286.33 98.46 287.73 98.1C309.59 92.57 332.799 76.52 354.659 69.57C355.509 62.65 360.79 56.65 368.08 60.38C369.44 61.08 369.5 63.19 370.35 63.31C371.83 63.52 394.18 54.94 398.75 53.79C406.98 51.72 415.36 50.13 423.86 49.68L423.939 43.48C423.999 43 424.1 42.53 424.33 42.16C424.76 41.46 439.659 41.84 439.439 44.72C439.939 46.49 437.9 49.69 438.74 50.95C439.13 51.54 449.04 55.21 451.6 56.86C459.47 61.93 465.079 70.81 472.21 76.61C474.28 78.29 486.549 86.41 488.22 86.58C489.99 86.75 490.89 84.09 493.26 83.69C503.95 81.9 501.309 91.13 504.669 92.97C507.089 94.3 521.689 96.31 525.139 96.51C539.549 97.34 553.22 93.83 567.09 90.85L565.09 85.66C562.1 81.9 577.669 74.58 579.659 78.61C579.639 79.53 581.299 82.12 580.629 83.8C581.849 85.08 607.19 72.75 610.82 71.29C619.96 67.61 633.119 64.53 641.129 60.69C645.149 58.77 644.279 52.51 652.639 54.97C654.199 55.43 655.39 57.38 657.11 57.61C660.86 58.1 668.45 56.62 673.54 57.08C693.52 58.9 706.89 70.48 720.8 83.52L724.48 78.42C725.7 75.49 737.76 84.76 737.8 85.58L736.77 87.89L733.62 91.97C748.12 97.6 763.81 101.47 779.58 100.9C781.33 100.84 790.969 100.33 791.399 99.92C792.009 99.33 791.219 92.85 796.409 91.99C804.099 90.72 805.839 96.97 806.43 96.96C812.289 96.94 823.69 90.24 829.3 87.99C833.94 86.13 836.39 87.2 831.6 90.35C825.26 94.51 814.43 98.02 806.97 99.15L807.93 105.36L807.02 107.48L794.01 109.92L792.37 108.26L792.44 103.1C775.95 104.01 759.83 103.5 743.87 98.85C741.09 98.04 734.519 94.34 732.889 94.24C730.939 94.12 728.25 97.41 722.919 95.76C717.51 94.08 719.69 87.17 718.7 85.64C717.71 84.12 706.05 74.25 703.78 72.55C698.39 68.5 684.039 60.31 677.649 60.22L657.48 59.96C656.23 64.29 660.71 63.96 659.44 68.26L658.27 70.35L645.71 72.67L643.879 71.16L642.94 62.87C637.799 64.96 632.35 66.25 627.11 68.1C618.95 70.97 588.73 82.5 583.34 86.85C581.33 88.47 582.6 95 576.59 95.98C572.33 96.68 570.23 93.28 567.77 93.19C564.63 93.08 555.039 96.82 550.659 97.57C534.029 100.41 518.07 99.99 501.86 95.18L501.81 99.31C500.49 103.55 486.9 99.74 486.34 96.01C485.58 94.12 488.68 90.86 488.05 89.8C487.49 88.86 472.67 80.72 469.52 78.18C461.36 71.61 455.589 61.68 446.169 57.02C445.129 56.5 439.12 54.17 438.72 54.21C438.13 54.28 436.09 58.95 431.47 59.17C424.92 59.49 423.71 52.75 421.23 52.64C416.12 52.4 404.169 55.5 398.699 56.88C389.299 59.26 380.329 63.32 370.879 65.55L373.909 70.75C373.359 74.42 362.52 78.73 359.35 76.77L356.84 71.59C340.77 78.27 325.069 85.84 309.149 92.85C302.629 95.72 292.539 98.28 286.919 101.48C283.319 103.52 283.189 107.27 278.679 107.77C274.819 108.2 272.63 105.98 269.689 105.94C266.16 105.89 260.799 108.06 256.929 108.42C240.429 109.94 222 108.96 209.74 96.44C204.66 91.25 208.45 88.04 199.84 93.32C199.29 93.96 198.3 94.63 197.84 94.22C196.16 92.72 190.56 79.43 193.83 77.73C195.51 77.99 200.76 77.42 201.439 75.5C202.119 73.58 202.61 62 202.36 59.71C201.23 49.25 189.689 47.32 181.189 45.62C164.749 43.85 148.25 44.95 131.84 47.12C129.19 48.08 129.069 54.69 123.159 55.1C118.129 55.45 115.43 50.84 114.95 50.81C114.19 50.77 103.47 54.15 101.51 54.76C87.1896 59.24 73.5195 65.72 59.4495 70.82L62.4695 77.05C63.0295 80.06 50.5897 84.55 48.3697 83.96L46.8894 82.02L45.3995 77.87L26.6595 86.94C25.7795 86.93 25.9895 84.82 26.1495 84.34C26.4695 83.39 41.6395 77.83 43.9195 75.23C44.9495 74.06 43.2395 69.39 47.7195 66.63C53.3595 63.16 57.3296 68.6 59.5396 68.27C77.2596 60.35 95.3596 52.29 114.56 48.76L112.58 41.5C112.47 40.72 112.47 39.59 113.03 39.4C116.36 38.29 125.989 36.22 128.129 38.6L128.149 38.59Z" fill="#08684F"/>
<path d="M128.15 38.5901C127.13 39.0201 113.94 41.5601 112.6 41.4901C96.6 40.6801 101.8 14.8301 106.35 5.20013C109.13 -0.679872 109.72 -1.29986 115.52 2.38014C124.52 8.09014 134.3 20.6101 132.32 31.8501C132.04 33.4501 129.14 38.1601 128.15 38.5801V38.5901Z" fill="#F0A52A"/>
<path d="M193.849 77.7204C194.629 82.4404 196.979 86.5804 198.319 91.2804C198.599 92.2604 199.829 93.1804 199.849 93.3204C200.099 94.7604 197.799 99.7604 196.669 101.06C188.909 109.99 166.949 107.15 157.789 101.09C161.189 90.2704 172.539 75.2204 185.079 75.4604C189.209 75.5404 190.729 77.2504 193.839 77.7304L193.849 77.7204Z" fill="#23B25C"/>
<path d="M807.929 105.37C810.939 105.57 813.409 107.87 814.939 110.29C822.139 121.65 814.739 137.91 807.799 147.72C796.239 145.17 777.069 114.42 792.379 108.27C794.149 107.56 806.159 105.25 807.929 105.37Z" fill="#23B25C"/>
<path d="M359.37 76.7701C360 76.3001 373.149 70.8501 373.929 70.7501C389.969 68.7001 391.35 102.66 383.78 111.82C371.65 108.89 352.709 95.3101 356.899 81.0501C357.179 80.0901 358.68 77.2801 359.36 76.7801L359.37 76.7701Z" fill="#528AC8"/>
<path d="M659.459 68.2603C669.259 68.7603 670.379 81.8202 669.409 89.4902C668.939 93.2402 663.889 108.7 660.269 109.56C653.229 111.23 627.529 79.1403 643.899 71.1703C646.399 69.9503 656.579 68.1202 659.449 68.2702L659.459 68.2603Z" fill="#528AC8"/>
<path d="M439.429 44.7101C437.519 44.9301 425.689 43.9301 423.929 43.4701C416.979 41.6501 417.729 29.1901 419.539 23.7601C421.179 18.8201 432.099 3.06011 437.429 3.28011C441.849 3.46011 448.899 24.1201 449.009 28.7801C449.149 34.8701 446.409 43.8801 439.429 44.7001V44.7101Z" fill="#F1A62A"/>
<path d="M501.82 99.3202C503.4 99.9102 506.72 107.17 506.79 109.29C507.08 118.61 496 134.12 487.6 137.67C483.34 139.47 482.37 136.4 480.53 132.85C475.99 124.12 472.53 107.39 480.08 99.5402C480.94 98.6502 485.52 95.9902 486.36 96.0302C486.98 96.0602 494.5 98.5102 496.46 98.9802C498.19 99.3902 500.95 99.0102 501.83 99.3402L501.82 99.3202Z" fill="#23B25C"/>
<path d="M736.78 87.8902C736.65 87.8402 736.1 86.3702 735.28 85.8302C733.35 84.5502 725.4 79.4002 724.49 78.4202C719.84 73.4202 724.5 64.1802 728.45 59.9502C732 56.1502 750.9 46.2102 754.94 49.2502C759.02 52.3302 755.21 73.9102 752.63 78.4802C750.25 82.6802 741.95 90.0102 736.78 87.8902Z" fill="#F0A52A"/>
<path d="M46.8995 82.0203C47.1795 81.8503 50.3497 81.9504 51.8597 81.3704C54.4697 80.3704 60.4096 77.1803 62.4796 77.0503C69.3196 76.6103 74.6896 86.4903 75.4496 92.4903C76.0096 96.9003 73.8097 117.28 69.5397 118.44C67.1697 119.09 57.7296 112.71 55.4896 110.92C50.0596 106.57 43.8697 99.0703 43.7697 91.7103C43.7497 90.0703 46.1895 82.4403 46.8995 82.0203Z" fill="#528AC8"/>
<path d="M579.67 78.6002C575.32 78.9602 571.37 81.6102 567.47 83.4102C566.06 84.0602 565.26 85.6102 565.1 85.6502C564.31 85.8302 558.62 83.3702 557.37 82.4602C546.8 74.6902 549.33 54.9202 553.31 44.2002C564.28 44.7302 581.41 58.4602 581.9 69.8702C582.08 74.0702 579.74 76.0002 579.67 78.6002Z" fill="#E5384E"/>
<path d="M282.629 91.2901C281.839 91.7701 268.39 95.2501 267.06 95.2301C251.43 94.9701 254.83 65.8401 260.58 56.6101C263.61 51.7601 266.18 54.6601 269.96 57.1701C277.65 62.2701 287.66 73.4301 286.639 83.3501C286.479 84.9401 283.829 90.5601 282.629 91.2901Z" fill="#E5384E"/>
<path d="M127.34 20.9902C124.9 18.9602 123.52 15.5502 121.27 13.1302C117.7 9.30019 113.31 7.13019 110 3.19019C117.07 4.93019 125.75 13.7702 127.34 20.9902Z" fill="#FBEDD9"/>
<path d="M176.209 81.6403C173.019 85.5203 169.249 88.8203 166.329 92.9703C165.439 94.2303 162.429 101.27 161.999 101.09C159.579 100.11 161.249 98.8403 161.699 97.6703C163.669 92.5703 168.359 87.0803 172.559 83.6503C173.729 82.6903 174.279 81.1603 176.209 81.6403Z" fill="#DBECDF"/>
<path d="M807.409 144.67C799.409 140.82 792.619 132.61 791.149 123.77L797.24 133.65L807.409 144.67Z" fill="#D9ECDC"/>
<path d="M383.8 107.1C383.16 109.01 382.48 109.14 380.66 108.68C378.19 108.05 360.69 97.0502 363.29 94.4102C369.35 99.5502 375.64 105.57 383.8 107.1Z" fill="#DDE5F1"/>
<path d="M661.029 106.55C653.559 105.15 644.919 95.1302 643.699 87.7202L650.769 97.6602L661.029 106.55Z" fill="#E1E9F1"/>
<path d="M445.8 31.34L442.34 18.9C442.26 16.62 434.92 7.27005 435.8 6.39005C437.79 4.38005 443.69 16.95 444.11 18.2C445.6 22.58 446.3 26.69 445.8 31.34Z" fill="#FBEBD8"/>
<path d="M486.87 135.32C484.49 137.63 479.81 124.89 479.47 123.65C478.07 118.54 477.65 114.56 478.94 109.37L480.3 119.78L486.87 135.32Z" fill="#CFE8D7"/>
<path d="M753.58 68.9701C753.37 70.3101 751.22 72.6901 751.42 74.6201H750.41C749.63 72.8901 751.49 70.6501 751.49 69.9701L751.74 50.8301C752.41 50.7601 753.79 52.2301 753.79 52.4101C753.73 57.3301 754.29 64.44 753.57 68.96L753.58 68.9701Z" fill="#FBE8CF"/>
<path d="M69.2197 115.4C61.1897 113.82 51.4998 106.87 49.7998 98.6104L57.4597 106.96L69.2197 115.4Z" fill="#DAE3F0"/>
<path d="M574.719 60.9503L565.85 53.7803L554.229 47.2503C556.009 47.1203 557.709 47.2203 559.419 47.7903C561.819 48.5903 576.959 58.5003 574.719 60.9503Z" fill="#F6D8DA"/>
<path d="M280.78 73.6799C275.66 66.8399 269.08 62.0299 262.39 56.8999C270.12 58.3099 278.75 65.9399 280.78 73.6799Z" fill="#F7DADC"/>
</svg>
